<svg xmlns="http://www.w3.org/2000/svg" xmlns:xlink="http://www.w3.org/1999/xlink" width="80" zoomAndPan="magnify" viewBox="0 0 60 30.000001" height="40" preserveAspectRatio="xMidYMid meet" version="1.0"><defs><clipPath id="2f67e8554e"><path d="M 0.144531 1 L 5 1 L 5 6.269531 L 0.144531 6.269531 Z M 0.144531 1 " clip-rule="nonzero"/></clipPath><clipPath id="82e40ae746"><path d="M 6 1 L 8 1 L 8 6.269531 L 6 6.269531 Z M 6 1 " clip-rule="nonzero"/></clipPath><clipPath id="c0de834974"><path d="M 8 1 L 12 1 L 12 6.269531 L 8 6.269531 Z M 8 1 " clip-rule="nonzero"/></clipPath><clipPath id="ff9f066111"><path d="M 12 1 L 17 1 L 17 6.269531 L 12 6.269531 Z M 12 1 " clip-rule="nonzero"/></clipPath><clipPath id="b6ca98cebc"><path d="M 17 1 L 21 1 L 21 6.269531 L 17 6.269531 Z M 17 1 " clip-rule="nonzero"/></clipPath><clipPath id="6422acf909"><path d="M 20 1 L 25 1 L 25 6.269531 L 20 6.269531 Z M 20 1 " clip-rule="nonzero"/></clipPath><clipPath id="857c516345"><path d="M 25 1 L 27.59375 1 L 27.59375 6.269531 L 25 6.269531 Z M 25 1 " clip-rule="nonzero"/></clipPath><clipPath id="32d4a62ff8"><path d="M 35 1 L 39 1 L 39 6.285156 L 35 6.285156 Z M 35 1 " clip-rule="nonzero"/></clipPath><clipPath id="2a07cbd44a"><path d="M 39 1 L 43 1 L 43 6.285156 L 39 6.285156 Z M 39 1 " clip-rule="nonzero"/></clipPath><clipPath id="fd2926185f"><path d="M 44 1 L 49 1 L 49 6.285156 L 44 6.285156 Z M 44 1 " clip-rule="nonzero"/></clipPath><clipPath id="50a4b5104f"><path d="M 49 1 L 53.894531 1 L 53.894531 6.285156 L 49 6.285156 Z M 49 1 " clip-rule="nonzero"/></clipPath><clipPath id="80fb26d9c0"><path d="M 31 1 L 35 1 L 35 6.285156 L 31 6.285156 Z M 31 1 " clip-rule="nonzero"/></clipPath><clipPath id="fcf4cb6fd5"><rect x="0" width="54" y="0" height="7"/></clipPath></defs><g transform="matrix(1, 0, 0, 1, 3, 11)"><g clip-path="url(#fcf4cb6fd5)"><g clip-path="url(#2f67e8554e)"><path fill="#000000" d="M 4.835938 6.039062 L 4.835938 1.335938 L 3.375 1.335938 L 2.628906 4.242188 L 1.96875 1.335938 L 0.457031 1.335938 L 0.457031 6.039062 L 1.292969 6.039062 L 1.292969 2.097656 L 2.164062 6.039062 L 2.917969 6.039062 L 3.871094 2.097656 L 3.871094 6.039062 Z M 4.835938 6.039062 " fill-opacity="1" fill-rule="nonzero"/></g><g clip-path="url(#82e40ae746)"><path fill="#000000" d="M 6.160156 6.039062 L 7.1875 6.039062 L 7.1875 1.335938 L 6.160156 1.335938 Z M 6.160156 6.039062 " fill-opacity="1" fill-rule="nonzero"/></g><g clip-path="url(#c0de834974)"><path fill="#000000" d="M 9.3125 6.039062 L 9.3125 2.632812 L 10.738281 6.039062 L 11.65625 6.039062 L 11.65625 1.335938 L 10.859375 1.335938 L 10.859375 4.253906 L 9.65625 1.335938 L 8.511719 1.335938 L 8.511719 6.039062 Z M 9.3125 6.039062 " fill-opacity="1" fill-rule="nonzero"/></g><g clip-path="url(#ff9f066111)"><path fill="#000000" d="M 14.511719 6.03125 C 14.589844 6.027344 14.6875 6.015625 14.816406 6 C 14.941406 5.980469 15.058594 5.949219 15.171875 5.902344 C 15.285156 5.855469 15.390625 5.792969 15.488281 5.714844 C 15.734375 5.523438 15.925781 5.246094 16.054688 4.882812 C 16.1875 4.515625 16.253906 4.109375 16.253906 3.65625 C 16.253906 3.335938 16.222656 3.050781 16.167969 2.800781 C 16.109375 2.550781 16.035156 2.34375 15.953125 2.183594 C 15.871094 2.023438 15.757812 1.886719 15.621094 1.773438 C 15.480469 1.65625 15.355469 1.574219 15.242188 1.519531 C 15.132812 1.464844 14.992188 1.421875 14.820312 1.390625 C 14.652344 1.359375 14.523438 1.34375 14.433594 1.339844 C 14.34375 1.335938 14.226562 1.332031 14.082031 1.332031 L 12.976562 1.332031 L 12.976562 6.035156 L 14.203125 6.035156 C 14.335938 6.039062 14.433594 6.035156 14.511719 6.03125 Z M 14.003906 5.222656 L 14.003906 2.152344 C 14.15625 2.144531 14.277344 2.148438 14.367188 2.15625 C 14.421875 2.160156 14.480469 2.171875 14.554688 2.195312 C 14.632812 2.214844 14.691406 2.246094 14.746094 2.28125 C 14.796875 2.320312 14.851562 2.375 14.910156 2.449219 C 14.964844 2.523438 15.011719 2.609375 15.046875 2.714844 C 15.082031 2.816406 15.109375 2.945312 15.132812 3.105469 C 15.15625 3.261719 15.167969 3.445312 15.167969 3.640625 C 15.167969 3.855469 15.15625 4.046875 15.132812 4.214844 C 15.109375 4.378906 15.078125 4.519531 15.042969 4.628906 C 15.007812 4.734375 14.960938 4.828125 14.90625 4.910156 C 14.847656 4.988281 14.792969 5.046875 14.742188 5.085938 C 14.6875 5.125 14.628906 5.15625 14.554688 5.179688 C 14.476562 5.199219 14.417969 5.214844 14.367188 5.21875 C 14.28125 5.226562 14.160156 5.226562 14.003906 5.222656 Z M 14.003906 5.222656 " fill-opacity="1" fill-rule="nonzero"/></g><g clip-path="url(#b6ca98cebc)"><path fill="#000000" d="M 19.78125 4.183594 L 19.78125 3.375 L 18.433594 3.375 L 18.433594 2.148438 L 20.183594 2.148438 L 20.183594 1.335938 L 17.40625 1.335938 L 17.40625 6.039062 L 18.433594 6.039062 L 18.433594 4.183594 Z M 19.78125 4.183594 " fill-opacity="1" fill-rule="nonzero"/></g><g clip-path="url(#6422acf909)"><path fill="#000000" d="M 24.1875 1.335938 L 23.320312 1.335938 L 23.320312 4.019531 C 23.320312 4.320312 23.316406 4.53125 23.304688 4.652344 C 23.296875 4.773438 23.273438 4.875 23.234375 4.960938 C 23.132812 5.164062 22.953125 5.269531 22.695312 5.269531 C 22.621094 5.269531 22.554688 5.261719 22.496094 5.246094 C 22.4375 5.230469 22.386719 5.210938 22.339844 5.191406 C 22.296875 5.171875 22.257812 5.140625 22.226562 5.097656 C 22.191406 5.050781 22.164062 5.011719 22.140625 4.976562 C 22.121094 4.941406 22.101562 4.886719 22.085938 4.820312 C 22.070312 4.75 22.058594 4.695312 22.050781 4.652344 C 22.042969 4.605469 22.035156 4.539062 22.03125 4.449219 C 22.027344 4.359375 22.023438 4.292969 22.023438 4.246094 C 22.023438 4.195312 22.023438 4.121094 22.023438 4.019531 L 22.023438 1.335938 L 20.996094 1.335938 L 20.996094 4.019531 C 20.996094 4.167969 20.996094 4.28125 21 4.359375 C 21 4.441406 21.007812 4.550781 21.015625 4.6875 C 21.027344 4.824219 21.042969 4.933594 21.058594 5.011719 C 21.078125 5.09375 21.105469 5.1875 21.140625 5.300781 C 21.179688 5.417969 21.222656 5.503906 21.273438 5.570312 C 21.332031 5.640625 21.402344 5.71875 21.488281 5.800781 C 21.527344 5.835938 21.570312 5.871094 21.617188 5.898438 C 21.742188 5.96875 21.914062 6.027344 22.125 6.066406 C 22.269531 6.09375 22.429688 6.109375 22.601562 6.109375 C 23.003906 6.109375 23.34375 6.019531 23.613281 5.84375 C 23.695312 5.792969 23.765625 5.730469 23.824219 5.660156 C 23.886719 5.589844 23.9375 5.519531 23.976562 5.457031 C 24.015625 5.390625 24.050781 5.308594 24.078125 5.207031 C 24.105469 5.105469 24.125 5.019531 24.140625 4.945312 C 24.152344 4.875 24.164062 4.773438 24.171875 4.640625 C 24.179688 4.511719 24.179688 4.40625 24.183594 4.328125 C 24.183594 4.253906 24.183594 4.136719 24.183594 3.980469 Z M 24.1875 1.335938 " fill-opacity="1" fill-rule="nonzero"/></g><g clip-path="url(#857c516345)"><path fill="#000000" d="M 28.046875 5.15625 L 26.535156 5.15625 L 26.535156 1.335938 L 25.507812 1.335938 L 25.507812 6.039062 L 28.046875 6.039062 Z M 28.046875 5.15625 " fill-opacity="1" fill-rule="nonzero"/></g><g clip-path="url(#32d4a62ff8)"><path fill="#000000" d="M 37.929688 4.183594 C 37.894531 4.105469 37.925781 4.015625 37.996094 3.96875 C 38.007812 3.957031 38.019531 3.949219 38.03125 3.941406 C 38.070312 3.914062 38.125 3.863281 38.199219 3.792969 C 38.269531 3.722656 38.328125 3.648438 38.371094 3.570312 C 38.410156 3.492188 38.445312 3.386719 38.480469 3.257812 C 38.511719 3.125 38.53125 2.976562 38.53125 2.820312 C 38.53125 2.390625 38.417969 2.050781 38.191406 1.796875 C 38.121094 1.722656 38.046875 1.65625 37.960938 1.601562 C 37.875 1.550781 37.796875 1.511719 37.726562 1.484375 C 37.652344 1.457031 37.566406 1.4375 37.453125 1.421875 C 37.34375 1.410156 37.257812 1.402344 37.191406 1.398438 C 37.125 1.398438 37.03125 1.394531 36.902344 1.394531 L 35.433594 1.394531 L 35.433594 6.097656 L 36.460938 6.097656 L 36.460938 4.242188 L 36.984375 4.242188 L 37.609375 6.097656 L 38.734375 6.097656 Z M 36.917969 3.480469 L 36.460938 3.480469 L 36.460938 2.15625 L 36.875 2.15625 C 36.929688 2.15625 36.976562 2.160156 37.015625 2.160156 C 37.054688 2.164062 37.109375 2.179688 37.175781 2.199219 C 37.246094 2.222656 37.304688 2.253906 37.351562 2.296875 C 37.394531 2.339844 37.433594 2.40625 37.46875 2.492188 C 37.503906 2.582031 37.523438 2.6875 37.523438 2.808594 C 37.523438 3.257812 37.324219 3.480469 36.917969 3.480469 Z M 36.917969 3.480469 " fill-opacity="1" fill-rule="nonzero"/></g><g clip-path="url(#2a07cbd44a)"><path fill="#000000" d="M 42.867188 1.394531 L 42 1.394531 L 42 4.082031 C 42 4.378906 41.996094 4.589844 41.988281 4.710938 C 41.976562 4.832031 41.953125 4.933594 41.914062 5.019531 C 41.816406 5.226562 41.636719 5.328125 41.378906 5.328125 C 41.304688 5.328125 41.238281 5.320312 41.175781 5.304688 C 41.117188 5.289062 41.066406 5.273438 41.023438 5.253906 C 40.976562 5.230469 40.9375 5.199219 40.90625 5.15625 C 40.871094 5.109375 40.84375 5.070312 40.824219 5.035156 C 40.800781 5 40.78125 4.945312 40.769531 4.878906 C 40.753906 4.8125 40.742188 4.753906 40.734375 4.710938 C 40.726562 4.664062 40.71875 4.597656 40.714844 4.511719 C 40.710938 4.421875 40.707031 4.351562 40.707031 4.304688 C 40.707031 4.253906 40.707031 4.179688 40.707031 4.078125 L 40.707031 1.394531 L 39.679688 1.394531 L 39.679688 4.082031 C 39.679688 4.226562 39.679688 4.339844 39.679688 4.421875 C 39.683594 4.5 39.6875 4.609375 39.699219 4.746094 C 39.707031 4.882812 39.722656 4.992188 39.742188 5.070312 C 39.757812 5.152344 39.789062 5.246094 39.824219 5.359375 C 39.859375 5.476562 39.902344 5.566406 39.957031 5.632812 C 40.011719 5.699219 40.082031 5.777344 40.167969 5.859375 C 40.207031 5.894531 40.25 5.929688 40.300781 5.957031 C 40.425781 6.03125 40.59375 6.085938 40.808594 6.125 C 40.949219 6.152344 41.109375 6.167969 41.28125 6.167969 C 41.6875 6.167969 42.023438 6.078125 42.296875 5.902344 C 42.375 5.851562 42.445312 5.789062 42.507812 5.71875 C 42.566406 5.648438 42.617188 5.582031 42.660156 5.515625 C 42.699219 5.449219 42.730469 5.367188 42.757812 5.265625 C 42.785156 5.164062 42.808594 5.078125 42.820312 5.003906 C 42.835938 4.933594 42.84375 4.832031 42.851562 4.699219 C 42.859375 4.570312 42.863281 4.464844 42.863281 4.390625 C 42.867188 4.3125 42.867188 4.195312 42.867188 4.039062 Z M 42.867188 1.394531 " fill-opacity="1" fill-rule="nonzero"/></g><g clip-path="url(#fd2926185f)"><path fill="#000000" d="M 48.574219 1.394531 L 47.109375 1.394531 L 46.367188 4.300781 L 45.699219 1.394531 L 44.191406 1.394531 L 44.191406 6.097656 L 45.027344 6.097656 L 45.027344 2.15625 L 45.902344 6.097656 L 46.652344 6.097656 L 47.609375 2.15625 L 47.609375 6.097656 L 48.574219 6.097656 Z M 48.574219 1.394531 " fill-opacity="1" fill-rule="nonzero"/></g><g clip-path="url(#50a4b5104f)"><path fill="#000000" d="M 52.652344 3.785156 C 52.59375 3.746094 52.546875 3.71875 52.507812 3.703125 C 52.472656 3.6875 52.421875 3.667969 52.351562 3.644531 C 52.398438 3.625 52.433594 3.609375 52.460938 3.601562 C 52.484375 3.589844 52.523438 3.570312 52.574219 3.539062 C 52.628906 3.507812 52.671875 3.476562 52.707031 3.445312 C 52.742188 3.417969 52.777344 3.375 52.820312 3.320312 C 52.863281 3.265625 52.898438 3.210938 52.925781 3.148438 C 52.949219 3.085938 52.972656 3.011719 52.992188 2.921875 C 53.007812 2.832031 53.015625 2.738281 53.015625 2.632812 C 53.015625 2.296875 52.9375 2.019531 52.773438 1.792969 C 52.71875 1.71875 52.652344 1.652344 52.570312 1.597656 C 52.488281 1.546875 52.410156 1.507812 52.335938 1.480469 C 52.265625 1.453125 52.171875 1.433594 52.054688 1.417969 C 51.941406 1.40625 51.851562 1.398438 51.785156 1.394531 C 51.71875 1.394531 51.621094 1.390625 51.492188 1.390625 L 49.898438 1.390625 L 49.898438 6.09375 L 51.492188 6.09375 C 51.675781 6.09375 51.816406 6.09375 51.910156 6.085938 C 52.003906 6.085938 52.121094 6.066406 52.257812 6.03125 C 52.394531 6 52.519531 5.949219 52.632812 5.878906 C 52.792969 5.78125 52.917969 5.632812 53.007812 5.425781 C 53.097656 5.21875 53.144531 5.007812 53.144531 4.789062 C 53.144531 4.449219 53.035156 4.160156 52.820312 3.929688 C 52.769531 3.875 52.714844 3.828125 52.652344 3.785156 Z M 50.890625 2.15625 L 51.296875 2.15625 C 51.347656 2.15625 51.390625 2.160156 51.421875 2.160156 C 51.453125 2.160156 51.5 2.167969 51.558594 2.175781 C 51.621094 2.1875 51.671875 2.203125 51.714844 2.226562 C 51.753906 2.25 51.796875 2.28125 51.839844 2.320312 C 51.882812 2.359375 51.917969 2.410156 51.9375 2.476562 C 51.960938 2.542969 51.972656 2.621094 51.972656 2.707031 C 51.972656 2.78125 51.964844 2.84375 51.953125 2.902344 C 51.9375 2.957031 51.917969 3.007812 51.890625 3.046875 C 51.863281 3.085938 51.835938 3.121094 51.808594 3.148438 C 51.78125 3.179688 51.742188 3.203125 51.699219 3.21875 C 51.652344 3.238281 51.613281 3.25 51.582031 3.261719 C 51.546875 3.273438 51.503906 3.28125 51.453125 3.285156 C 51.398438 3.289062 51.359375 3.289062 51.332031 3.292969 C 51.304688 3.292969 51.265625 3.292969 51.21875 3.292969 L 50.886719 3.292969 L 50.886719 2.15625 Z M 51.921875 5.144531 C 51.800781 5.238281 51.628906 5.285156 51.394531 5.285156 L 50.890625 5.285156 L 50.890625 4.054688 L 51.386719 4.054688 C 51.4375 4.054688 51.476562 4.054688 51.503906 4.054688 C 51.53125 4.058594 51.574219 4.0625 51.632812 4.070312 C 51.6875 4.078125 51.734375 4.089844 51.769531 4.101562 C 51.804688 4.117188 51.847656 4.136719 51.894531 4.167969 C 51.941406 4.195312 51.976562 4.234375 52.003906 4.277344 C 52.03125 4.320312 52.050781 4.375 52.070312 4.441406 C 52.089844 4.507812 52.101562 4.582031 52.101562 4.667969 C 52.097656 4.890625 52.039062 5.046875 51.921875 5.144531 Z M 51.921875 5.144531 " fill-opacity="1" fill-rule="nonzero"/></g><g clip-path="url(#80fb26d9c0)"><path fill="#000000" d="M 34.285156 1.851562 C 34.261719 1.824219 34.140625 1.679688 33.964844 1.5625 C 33.621094 1.328125 33.242188 1.324219 33.082031 1.324219 C 32.867188 1.324219 32.667969 1.351562 32.492188 1.414062 C 32.316406 1.472656 32.164062 1.554688 32.046875 1.652344 C 31.925781 1.75 31.816406 1.867188 31.726562 2.007812 C 31.632812 2.152344 31.5625 2.289062 31.511719 2.433594 C 31.457031 2.574219 31.417969 2.726562 31.382812 2.894531 C 31.351562 3.058594 31.332031 3.207031 31.320312 3.339844 C 31.3125 3.472656 31.304688 3.609375 31.304688 3.746094 C 31.304688 3.910156 31.3125 4.066406 31.324219 4.21875 C 31.339844 4.375 31.367188 4.53125 31.40625 4.695312 C 31.445312 4.859375 31.492188 5.007812 31.550781 5.148438 C 31.609375 5.289062 31.683594 5.421875 31.777344 5.550781 C 31.871094 5.679688 31.976562 5.785156 32.09375 5.875 C 32.214844 5.960938 32.355469 6.035156 32.523438 6.085938 C 32.691406 6.136719 32.871094 6.164062 33.074219 6.164062 C 33.324219 6.164062 33.546875 6.121094 33.75 6.03125 C 33.960938 5.9375 34.132812 5.804688 34.269531 5.636719 C 34.214844 5.597656 34.144531 5.53125 34.082031 5.441406 C 34.019531 5.355469 33.984375 5.277344 33.964844 5.21875 C 34.023438 5.171875 34.128906 5.070312 34.199219 4.90625 C 34.289062 4.691406 34.257812 4.5 34.242188 4.429688 C 34.085938 4.417969 33.925781 4.40625 33.769531 4.394531 C 33.753906 4.476562 33.738281 4.542969 33.726562 4.601562 C 33.722656 4.632812 33.691406 4.769531 33.65625 4.871094 C 33.652344 4.875 33.652344 4.878906 33.652344 4.878906 C 33.625 4.957031 33.605469 4.996094 33.589844 5.019531 C 33.570312 5.054688 33.539062 5.09375 33.507812 5.136719 C 33.472656 5.183594 33.4375 5.21875 33.398438 5.242188 C 33.359375 5.265625 33.3125 5.285156 33.261719 5.300781 C 33.207031 5.320312 33.152344 5.328125 33.089844 5.328125 C 32.972656 5.328125 32.871094 5.300781 32.785156 5.246094 C 32.699219 5.191406 32.628906 5.117188 32.578125 5.027344 C 32.527344 4.9375 32.488281 4.828125 32.457031 4.691406 C 32.429688 4.554688 32.410156 4.417969 32.398438 4.285156 C 32.390625 4.152344 32.386719 4 32.386719 3.824219 C 32.386719 3.566406 32.394531 3.34375 32.414062 3.15625 C 32.433594 2.96875 32.46875 2.796875 32.519531 2.636719 C 32.566406 2.480469 32.636719 2.359375 32.734375 2.277344 C 32.828125 2.195312 32.945312 2.15625 33.089844 2.15625 C 33.171875 2.15625 33.246094 2.167969 33.3125 2.195312 C 33.375 2.222656 33.429688 2.257812 33.472656 2.292969 C 33.519531 2.332031 33.554688 2.386719 33.585938 2.453125 C 33.621094 2.523438 33.644531 2.578125 33.664062 2.632812 C 33.679688 2.683594 33.695312 2.753906 33.710938 2.835938 C 33.722656 2.90625 33.730469 2.957031 33.738281 3.027344 C 33.746094 3.101562 33.753906 3.167969 33.757812 3.210938 C 33.929688 3.199219 34.105469 3.1875 34.28125 3.175781 C 34.28125 3.085938 34.273438 3.015625 34.265625 2.960938 C 34.253906 2.902344 34.234375 2.785156 34.167969 2.652344 C 34.132812 2.582031 34.09375 2.53125 34.066406 2.492188 C 34.109375 2.460938 34.15625 2.417969 34.203125 2.371094 C 34.308594 2.261719 34.375 2.148438 34.417969 2.058594 C 34.390625 2.003906 34.34375 1.929688 34.285156 1.851562 Z M 34.285156 1.851562 " fill-opacity="1" fill-rule="nonzero"/></g></g></g></svg>