<svg xmlns="http://www.w3.org/2000/svg" xmlns:xlink="http://www.w3.org/1999/xlink" width="300" zoomAndPan="magnify" viewBox="0 0 224.87999 225" height="300" preserveAspectRatio="xMidYMid meet" version="1.0"><path fill="#eff1e6" d="M 115.050781 159.675781 L 115.050781 66.117188 L 85.875 66.117188 L 71.035156 123.914062 L 57.820312 66.117188 L 27.679688 66.117188 L 27.679688 159.675781 L 44.371094 159.675781 L 44.371094 81.273438 L 61.761719 159.675781 L 76.796875 159.675781 L 95.808594 81.273438 L 95.808594 159.675781 Z M 115.050781 159.675781 " fill-opacity="1" fill-rule="nonzero"/><path fill="#eff1e6" d="M 197.476562 74.894531 C 197.011719 74.316406 194.65625 71.457031 191.140625 69.097656 C 184.261719 64.457031 176.6875 64.34375 173.554688 64.34375 C 169.226562 64.34375 165.285156 64.921875 161.730469 66.160156 C 158.214844 67.355469 155.238281 68.941406 152.84375 70.875 C 150.449219 72.808594 148.320312 75.167969 146.46875 77.988281 C 144.613281 80.8125 143.183594 83.59375 142.175781 86.417969 C 141.132812 89.238281 140.324219 92.292969 139.664062 95.578125 C 139.007812 98.902344 138.621094 101.84375 138.390625 104.507812 C 138.199219 107.136719 138.082031 109.804688 138.082031 112.550781 C 138.082031 115.796875 138.234375 118.929688 138.507812 121.984375 C 138.816406 125.039062 139.316406 128.167969 140.089844 131.417969 C 140.863281 134.664062 141.792969 137.679688 142.988281 140.464844 C 144.148438 143.246094 145.65625 145.914062 147.511719 148.425781 C 149.367188 150.980469 151.492188 153.105469 153.847656 154.882812 C 156.207031 156.625 159.066406 158.054688 162.386719 159.097656 C 165.710938 160.140625 169.34375 160.683594 173.324219 160.683594 C 178.308594 160.683594 182.792969 159.792969 186.8125 158.015625 C 191.023438 156.160156 194.460938 153.53125 197.167969 150.167969 C 196.125 149.355469 194.695312 148.078125 193.417969 146.261719 C 192.222656 144.601562 191.527344 143.015625 191.101562 141.816406 C 192.261719 140.886719 194.425781 138.917969 195.816406 135.59375 C 197.59375 131.339844 196.9375 127.511719 196.625 126.121094 C 193.496094 125.886719 190.367188 125.65625 187.199219 125.425781 C 186.925781 127.046875 186.617188 128.441406 186.386719 129.5625 C 186.269531 130.179688 185.652344 132.925781 184.957031 134.933594 C 184.917969 134.972656 184.917969 135.050781 184.917969 135.089844 C 184.339844 136.636719 183.953125 137.449219 183.640625 137.910156 C 183.21875 138.570312 182.636719 139.34375 181.980469 140.230469 C 181.324219 141.121094 180.589844 141.816406 179.816406 142.28125 C 179.042969 142.746094 178.117188 143.167969 177.074219 143.515625 C 176.03125 143.867188 174.910156 144.019531 173.710938 144.019531 C 171.316406 144.019531 169.304688 143.480469 167.566406 142.359375 C 165.867188 141.273438 164.515625 139.84375 163.46875 138.066406 C 162.464844 136.289062 161.652344 134.085938 161.074219 131.339844 C 160.496094 128.632812 160.109375 125.925781 159.914062 123.296875 C 159.722656 120.628906 159.644531 117.578125 159.644531 114.097656 C 159.644531 108.992188 159.835938 104.546875 160.222656 100.835938 C 160.609375 97.125 161.304688 93.683594 162.273438 90.515625 C 163.238281 87.382812 164.667969 84.984375 166.5625 83.363281 C 168.457031 81.738281 170.8125 80.925781 173.671875 80.925781 C 175.296875 80.925781 176.800781 81.199219 178.078125 81.738281 C 179.390625 82.28125 180.472656 82.9375 181.324219 83.671875 C 182.210938 84.445312 182.945312 85.488281 183.605469 86.84375 C 184.261719 88.195312 184.761719 89.355469 185.109375 90.398438 C 185.457031 91.441406 185.769531 92.796875 186.039062 94.457031 C 186.269531 95.851562 186.425781 96.855469 186.578125 98.246094 C 186.773438 99.753906 186.886719 101.03125 186.964844 101.917969 C 190.445312 101.6875 193.921875 101.417969 197.398438 101.183594 C 197.4375 99.445312 197.285156 98.015625 197.089844 96.933594 C 196.898438 95.734375 196.511719 93.453125 195.15625 90.785156 C 194.460938 89.394531 193.726562 88.351562 193.148438 87.613281 C 194 86.957031 194.925781 86.144531 195.855469 85.21875 C 197.980469 83.015625 199.332031 80.773438 200.183594 78.992188 C 199.640625 77.910156 198.714844 76.441406 197.476562 74.894531 Z M 197.476562 74.894531 " fill-opacity="1" fill-rule="nonzero"/></svg>