<svg xmlns="http://www.w3.org/2000/svg" xmlns:xlink="http://www.w3.org/1999/xlink" width="113" zoomAndPan="magnify" viewBox="0 0 84.75 31.5" height="42" preserveAspectRatio="xMidYMid meet" version="1.0"><defs><clipPath id="aac8b6ed07"><path d="M 0.375 0.105469 L 78.101562 0.105469 L 78.101562 8.84375 L 0.375 8.84375 Z M 0.375 0.105469 " clip-rule="nonzero"/></clipPath><clipPath id="50f93e52b2"><path d="M 30 1 L 36 1 L 36 8.253906 L 30 8.253906 Z M 30 1 " clip-rule="nonzero"/></clipPath><clipPath id="6b985d6daf"><path d="M 37 1 L 40.105469 1 L 40.105469 8 L 37 8 Z M 37 1 " clip-rule="nonzero"/></clipPath><clipPath id="db81927db7"><path d="M 51 1 L 57 1 L 57 8.277344 L 51 8.277344 Z M 51 1 " clip-rule="nonzero"/></clipPath><clipPath id="872cf8133c"><path d="M 57 1 L 63 1 L 63 8.277344 L 57 8.277344 Z M 57 1 " clip-rule="nonzero"/></clipPath><clipPath id="34f6f024d6"><path d="M 63 1 L 71 1 L 71 8.277344 L 63 8.277344 Z M 63 1 " clip-rule="nonzero"/></clipPath><clipPath id="91cfb034c6"><path d="M 72 1 L 77 1 L 77 8.277344 L 72 8.277344 Z M 72 1 " clip-rule="nonzero"/></clipPath><clipPath id="d598b5a218"><path d="M 45 1 L 50 1 L 50 8.277344 L 45 8.277344 Z M 45 1 " clip-rule="nonzero"/></clipPath><clipPath id="5b30c5bf47"><rect x="0" width="79" y="0" height="9"/></clipPath><clipPath id="772e80a257"><rect x="0" width="79" y="0" height="9"/></clipPath></defs><g transform="matrix(1, 0, 0, 1, 3, 11)"><g clip-path="url(#772e80a257)"><g clip-path="url(#aac8b6ed07)"><g transform="matrix(1, 0, 0, 1, -0.000000000000000444, -0.000000000000005329)"><g clip-path="url(#5b30c5bf47)"><path fill="#000000" d="M 7.351562 7.925781 L 7.351562 1.15625 L 5.246094 1.15625 L 4.175781 5.335938 L 3.222656 1.15625 L 1.046875 1.15625 L 1.046875 7.925781 L 2.25 7.925781 L 2.25 2.253906 L 3.503906 7.925781 L 4.589844 7.925781 L 5.964844 2.253906 L 5.964844 7.925781 Z M 7.351562 7.925781 " fill-opacity="1" fill-rule="nonzero"/><path fill="#000000" d="M 9.257812 7.925781 L 10.734375 7.925781 L 10.734375 1.15625 L 9.257812 1.15625 Z M 9.257812 7.925781 " fill-opacity="1" fill-rule="nonzero"/><path fill="#000000" d="M 13.792969 7.925781 L 13.792969 3.023438 L 15.847656 7.925781 L 17.167969 7.925781 L 17.167969 1.15625 L 16.019531 1.15625 L 16.019531 5.355469 L 14.289062 1.15625 L 12.640625 1.15625 L 12.640625 7.925781 Z M 13.792969 7.925781 " fill-opacity="1" fill-rule="nonzero"/><path fill="#000000" d="M 21.277344 7.917969 C 21.386719 7.910156 21.53125 7.894531 21.714844 7.871094 C 21.894531 7.84375 22.066406 7.796875 22.226562 7.730469 C 22.390625 7.660156 22.539062 7.570312 22.683594 7.460938 C 23.039062 7.1875 23.308594 6.785156 23.5 6.261719 C 23.6875 5.734375 23.785156 5.148438 23.785156 4.496094 C 23.785156 4.035156 23.742188 3.625 23.65625 3.265625 C 23.574219 2.902344 23.472656 2.605469 23.351562 2.378906 C 23.230469 2.148438 23.074219 1.949219 22.871094 1.785156 C 22.671875 1.621094 22.492188 1.496094 22.332031 1.417969 C 22.167969 1.339844 21.96875 1.277344 21.722656 1.234375 C 21.476562 1.191406 21.292969 1.167969 21.164062 1.160156 C 21.035156 1.15625 20.867188 1.152344 20.660156 1.152344 L 19.066406 1.152344 L 19.066406 7.921875 L 20.835938 7.921875 C 21.023438 7.925781 21.167969 7.921875 21.277344 7.917969 Z M 20.546875 6.753906 L 20.546875 2.332031 C 20.765625 2.320312 20.941406 2.324219 21.070312 2.335938 C 21.144531 2.339844 21.234375 2.359375 21.339844 2.390625 C 21.449219 2.421875 21.539062 2.464844 21.613281 2.519531 C 21.6875 2.570312 21.765625 2.652344 21.847656 2.757812 C 21.929688 2.863281 21.996094 2.992188 22.046875 3.140625 C 22.097656 3.289062 22.136719 3.472656 22.167969 3.703125 C 22.203125 3.929688 22.21875 4.191406 22.21875 4.476562 C 22.21875 4.785156 22.203125 5.058594 22.167969 5.296875 C 22.136719 5.539062 22.09375 5.738281 22.042969 5.894531 C 21.992188 6.050781 21.925781 6.183594 21.84375 6.300781 C 21.757812 6.410156 21.679688 6.5 21.609375 6.554688 C 21.53125 6.613281 21.441406 6.65625 21.335938 6.6875 C 21.226562 6.71875 21.140625 6.738281 21.066406 6.746094 C 20.945312 6.757812 20.769531 6.757812 20.546875 6.753906 Z M 20.546875 6.753906 " fill-opacity="1" fill-rule="nonzero"/><path fill="#000000" d="M 28.863281 5.253906 L 28.863281 4.089844 L 26.921875 4.089844 L 26.921875 2.324219 L 29.441406 2.324219 L 29.441406 1.15625 L 25.445312 1.15625 L 25.445312 7.925781 L 26.921875 7.925781 L 26.921875 5.253906 Z M 28.863281 5.253906 " fill-opacity="1" fill-rule="nonzero"/><g clip-path="url(#50f93e52b2)"><path fill="#000000" d="M 35.203125 1.15625 L 33.953125 1.15625 L 33.953125 5.019531 C 33.953125 5.449219 33.949219 5.753906 33.933594 5.929688 C 33.921875 6.105469 33.886719 6.253906 33.832031 6.371094 C 33.6875 6.667969 33.425781 6.816406 33.054688 6.816406 C 32.949219 6.816406 32.855469 6.804688 32.769531 6.785156 C 32.683594 6.761719 32.609375 6.734375 32.546875 6.707031 C 32.484375 6.675781 32.425781 6.632812 32.378906 6.570312 C 32.328125 6.503906 32.289062 6.445312 32.257812 6.394531 C 32.226562 6.34375 32.199219 6.269531 32.179688 6.171875 C 32.160156 6.074219 32.140625 5.992188 32.128906 5.929688 C 32.121094 5.863281 32.109375 5.769531 32.101562 5.640625 C 32.097656 5.511719 32.089844 5.414062 32.089844 5.34375 C 32.089844 5.273438 32.089844 5.164062 32.089844 5.019531 L 32.089844 1.15625 L 30.613281 1.15625 L 30.613281 5.019531 C 30.613281 5.234375 30.613281 5.394531 30.617188 5.511719 C 30.617188 5.625 30.625 5.78125 30.640625 5.976562 C 30.65625 6.175781 30.675781 6.332031 30.703125 6.449219 C 30.726562 6.5625 30.769531 6.699219 30.820312 6.863281 C 30.871094 7.03125 30.9375 7.160156 31.011719 7.253906 C 31.09375 7.355469 31.195312 7.464844 31.320312 7.582031 C 31.375 7.632812 31.4375 7.683594 31.503906 7.722656 C 31.6875 7.828125 31.929688 7.910156 32.238281 7.96875 C 32.441406 8.007812 32.671875 8.027344 32.917969 8.027344 C 33.503906 8.027344 33.988281 7.898438 34.378906 7.644531 C 34.492188 7.570312 34.597656 7.480469 34.683594 7.378906 C 34.769531 7.277344 34.84375 7.179688 34.902344 7.085938 C 34.960938 6.992188 35.007812 6.875 35.046875 6.726562 C 35.085938 6.582031 35.117188 6.457031 35.136719 6.351562 C 35.15625 6.25 35.167969 6.105469 35.179688 5.914062 C 35.191406 5.726562 35.195312 5.574219 35.195312 5.464844 C 35.199219 5.355469 35.199219 5.1875 35.199219 4.960938 Z M 35.203125 1.15625 " fill-opacity="1" fill-rule="nonzero"/></g><g clip-path="url(#6b985d6daf)"><path fill="#000000" d="M 40.757812 6.65625 L 38.582031 6.65625 L 38.582031 1.15625 L 37.105469 1.15625 L 37.105469 7.925781 L 40.757812 7.925781 Z M 40.757812 6.65625 " fill-opacity="1" fill-rule="nonzero"/></g><g clip-path="url(#db81927db7)"><path fill="#000000" d="M 54.984375 5.253906 C 54.9375 5.144531 54.976562 5.011719 55.078125 4.945312 C 55.097656 4.929688 55.113281 4.917969 55.132812 4.90625 C 55.1875 4.867188 55.269531 4.796875 55.371094 4.695312 C 55.472656 4.59375 55.554688 4.484375 55.617188 4.375 C 55.675781 4.261719 55.726562 4.109375 55.773438 3.921875 C 55.824219 3.730469 55.847656 3.519531 55.847656 3.292969 C 55.847656 2.671875 55.6875 2.183594 55.363281 1.824219 C 55.261719 1.710938 55.152344 1.617188 55.027344 1.539062 C 54.90625 1.464844 54.789062 1.410156 54.691406 1.371094 C 54.585938 1.332031 54.457031 1.300781 54.300781 1.28125 C 54.140625 1.261719 54.015625 1.253906 53.921875 1.25 C 53.824219 1.246094 53.6875 1.242188 53.507812 1.242188 L 51.394531 1.242188 L 51.394531 8.011719 L 52.871094 8.011719 L 52.871094 5.339844 L 53.621094 5.339844 L 54.519531 8.011719 L 56.140625 8.011719 Z M 53.53125 4.246094 L 52.871094 4.246094 L 52.871094 2.335938 L 53.46875 2.335938 C 53.542969 2.335938 53.609375 2.339844 53.667969 2.347656 C 53.722656 2.351562 53.800781 2.371094 53.902344 2.402344 C 54 2.433594 54.085938 2.480469 54.148438 2.542969 C 54.214844 2.601562 54.273438 2.695312 54.320312 2.820312 C 54.371094 2.949219 54.398438 3.101562 54.398438 3.273438 C 54.398438 3.921875 54.109375 4.246094 53.53125 4.246094 Z M 53.53125 4.246094 " fill-opacity="1" fill-rule="nonzero"/></g><g clip-path="url(#872cf8133c)"><path fill="#000000" d="M 62.089844 1.242188 L 60.84375 1.242188 L 60.84375 5.105469 C 60.84375 5.535156 60.839844 5.839844 60.824219 6.011719 C 60.8125 6.1875 60.777344 6.335938 60.722656 6.457031 C 60.578125 6.753906 60.316406 6.902344 59.945312 6.902344 C 59.839844 6.902344 59.746094 6.890625 59.660156 6.867188 C 59.570312 6.847656 59.5 6.820312 59.433594 6.792969 C 59.371094 6.761719 59.316406 6.71875 59.269531 6.652344 C 59.21875 6.589844 59.179688 6.53125 59.148438 6.480469 C 59.117188 6.429688 59.089844 6.355469 59.070312 6.257812 C 59.046875 6.160156 59.03125 6.078125 59.019531 6.011719 C 59.007812 5.949219 58.996094 5.855469 58.992188 5.726562 C 58.984375 5.597656 58.980469 5.5 58.980469 5.429688 C 58.980469 5.359375 58.980469 5.25 58.980469 5.105469 L 58.980469 1.242188 L 57.503906 1.242188 L 57.503906 5.105469 C 57.503906 5.320312 57.503906 5.480469 57.503906 5.597656 C 57.507812 5.710938 57.515625 5.867188 57.53125 6.0625 C 57.542969 6.261719 57.566406 6.417969 57.589844 6.535156 C 57.617188 6.648438 57.660156 6.785156 57.707031 6.949219 C 57.761719 7.117188 57.824219 7.242188 57.902344 7.339844 C 57.980469 7.441406 58.082031 7.550781 58.207031 7.667969 C 58.265625 7.71875 58.324219 7.769531 58.394531 7.808594 C 58.574219 7.914062 58.820312 7.992188 59.125 8.050781 C 59.332031 8.089844 59.5625 8.109375 59.808594 8.109375 C 60.390625 8.109375 60.878906 7.984375 61.269531 7.730469 C 61.382812 7.65625 61.484375 7.566406 61.570312 7.464844 C 61.660156 7.363281 61.730469 7.265625 61.789062 7.171875 C 61.847656 7.074219 61.894531 6.957031 61.933594 6.8125 C 61.972656 6.667969 62.003906 6.542969 62.023438 6.4375 C 62.042969 6.335938 62.058594 6.1875 62.070312 6 C 62.078125 5.8125 62.082031 5.660156 62.085938 5.550781 C 62.089844 5.441406 62.089844 5.273438 62.089844 5.046875 Z M 62.089844 1.242188 " fill-opacity="1" fill-rule="nonzero"/></g><g clip-path="url(#34f6f024d6)"><path fill="#000000" d="M 70.304688 1.242188 L 68.199219 1.242188 L 67.125 5.425781 L 66.167969 1.242188 L 63.996094 1.242188 L 63.996094 8.011719 L 65.203125 8.011719 L 65.203125 2.335938 L 66.457031 8.011719 L 67.539062 8.011719 L 68.914062 2.335938 L 68.914062 8.011719 L 70.304688 8.011719 Z M 70.304688 1.242188 " fill-opacity="1" fill-rule="nonzero"/></g><g clip-path="url(#91cfb034c6)"><path fill="#000000" d="M 76.175781 4.683594 C 76.089844 4.625 76.023438 4.585938 75.96875 4.5625 C 75.917969 4.542969 75.839844 4.515625 75.742188 4.476562 C 75.8125 4.453125 75.859375 4.429688 75.898438 4.414062 C 75.929688 4.402344 75.988281 4.371094 76.066406 4.328125 C 76.144531 4.28125 76.203125 4.238281 76.253906 4.195312 C 76.300781 4.152344 76.359375 4.089844 76.417969 4.011719 C 76.480469 3.933594 76.53125 3.855469 76.566406 3.765625 C 76.601562 3.675781 76.632812 3.566406 76.660156 3.441406 C 76.6875 3.3125 76.699219 3.171875 76.699219 3.023438 C 76.699219 2.542969 76.582031 2.140625 76.347656 1.816406 C 76.269531 1.707031 76.171875 1.609375 76.054688 1.535156 C 75.9375 1.460938 75.828125 1.402344 75.722656 1.363281 C 75.617188 1.324219 75.480469 1.296875 75.316406 1.277344 C 75.152344 1.257812 75.019531 1.246094 74.925781 1.242188 C 74.828125 1.242188 74.6875 1.238281 74.507812 1.238281 L 72.210938 1.238281 L 72.210938 8.007812 L 74.507812 8.007812 C 74.769531 8.007812 74.972656 8.003906 75.109375 7.996094 C 75.246094 7.992188 75.410156 7.960938 75.605469 7.914062 C 75.804688 7.867188 75.988281 7.796875 76.144531 7.695312 C 76.378906 7.554688 76.558594 7.339844 76.6875 7.042969 C 76.816406 6.746094 76.882812 6.441406 76.882812 6.128906 C 76.882812 5.636719 76.726562 5.222656 76.417969 4.886719 C 76.34375 4.8125 76.261719 4.742188 76.175781 4.683594 Z M 73.636719 2.335938 L 74.222656 2.335938 C 74.296875 2.335938 74.355469 2.339844 74.402344 2.34375 C 74.449219 2.347656 74.515625 2.355469 74.601562 2.367188 C 74.6875 2.382812 74.765625 2.40625 74.824219 2.4375 C 74.882812 2.472656 74.941406 2.515625 75.007812 2.574219 C 75.070312 2.628906 75.117188 2.699219 75.148438 2.800781 C 75.175781 2.894531 75.195312 3.007812 75.195312 3.132812 C 75.195312 3.234375 75.1875 3.328125 75.167969 3.410156 C 75.148438 3.492188 75.117188 3.5625 75.078125 3.617188 C 75.039062 3.675781 75 3.726562 74.960938 3.765625 C 74.921875 3.808594 74.867188 3.84375 74.804688 3.867188 C 74.738281 3.894531 74.679688 3.914062 74.632812 3.929688 C 74.585938 3.945312 74.523438 3.957031 74.445312 3.960938 C 74.371094 3.964844 74.3125 3.96875 74.273438 3.972656 C 74.234375 3.972656 74.179688 3.972656 74.109375 3.972656 L 73.632812 3.972656 L 73.632812 2.335938 Z M 75.121094 6.636719 C 74.953125 6.773438 74.699219 6.839844 74.363281 6.839844 L 73.636719 6.839844 L 73.636719 5.066406 L 74.355469 5.066406 C 74.425781 5.066406 74.480469 5.066406 74.523438 5.070312 C 74.5625 5.074219 74.621094 5.078125 74.707031 5.089844 C 74.785156 5.101562 74.855469 5.117188 74.902344 5.136719 C 74.953125 5.15625 75.015625 5.1875 75.082031 5.234375 C 75.148438 5.273438 75.203125 5.328125 75.242188 5.390625 C 75.28125 5.449219 75.3125 5.527344 75.339844 5.625 C 75.367188 5.71875 75.382812 5.828125 75.382812 5.953125 C 75.375 6.269531 75.292969 6.5 75.121094 6.636719 Z M 75.121094 6.636719 " fill-opacity="1" fill-rule="nonzero"/></g><g clip-path="url(#d598b5a218)"><path fill="#000000" d="M 49.734375 1.902344 C 49.703125 1.859375 49.53125 1.652344 49.277344 1.480469 C 48.78125 1.144531 48.234375 1.136719 48.007812 1.136719 C 47.695312 1.136719 47.410156 1.179688 47.15625 1.269531 C 46.902344 1.355469 46.6875 1.46875 46.515625 1.609375 C 46.339844 1.75 46.1875 1.921875 46.054688 2.125 C 45.917969 2.328125 45.816406 2.53125 45.742188 2.734375 C 45.667969 2.9375 45.609375 3.160156 45.5625 3.398438 C 45.515625 3.636719 45.488281 3.851562 45.46875 4.042969 C 45.457031 4.234375 45.449219 4.425781 45.449219 4.625 C 45.449219 4.859375 45.460938 5.085938 45.480469 5.308594 C 45.5 5.527344 45.539062 5.753906 45.59375 5.992188 C 45.648438 6.226562 45.714844 6.445312 45.800781 6.644531 C 45.886719 6.847656 45.996094 7.039062 46.128906 7.222656 C 46.261719 7.40625 46.417969 7.558594 46.585938 7.6875 C 46.757812 7.816406 46.960938 7.917969 47.203125 7.992188 C 47.441406 8.070312 47.703125 8.109375 47.992188 8.109375 C 48.351562 8.109375 48.675781 8.042969 48.964844 7.914062 C 49.269531 7.78125 49.519531 7.589844 49.714844 7.347656 C 49.636719 7.289062 49.535156 7.195312 49.441406 7.066406 C 49.355469 6.945312 49.304688 6.828125 49.277344 6.742188 C 49.359375 6.675781 49.515625 6.535156 49.617188 6.292969 C 49.742188 5.984375 49.695312 5.707031 49.675781 5.609375 C 49.449219 5.589844 49.222656 5.574219 48.992188 5.558594 C 48.972656 5.675781 48.953125 5.773438 48.933594 5.855469 C 48.925781 5.902344 48.882812 6.101562 48.832031 6.246094 C 48.828125 6.25 48.828125 6.253906 48.828125 6.257812 C 48.789062 6.367188 48.757812 6.425781 48.738281 6.460938 C 48.707031 6.507812 48.664062 6.5625 48.617188 6.628906 C 48.570312 6.691406 48.515625 6.742188 48.460938 6.777344 C 48.40625 6.808594 48.339844 6.839844 48.261719 6.867188 C 48.1875 6.890625 48.105469 6.902344 48.019531 6.902344 C 47.847656 6.902344 47.703125 6.863281 47.578125 6.78125 C 47.453125 6.703125 47.355469 6.601562 47.28125 6.472656 C 47.207031 6.34375 47.148438 6.183594 47.109375 5.984375 C 47.066406 5.789062 47.039062 5.59375 47.023438 5.402344 C 47.011719 5.210938 47.003906 4.988281 47.003906 4.738281 C 47.003906 4.367188 47.019531 4.046875 47.046875 3.777344 C 47.074219 3.507812 47.125 3.261719 47.195312 3.03125 C 47.265625 2.804688 47.367188 2.632812 47.503906 2.511719 C 47.640625 2.394531 47.8125 2.335938 48.015625 2.335938 C 48.132812 2.335938 48.242188 2.355469 48.335938 2.394531 C 48.429688 2.433594 48.507812 2.484375 48.570312 2.535156 C 48.632812 2.59375 48.6875 2.667969 48.734375 2.765625 C 48.78125 2.863281 48.816406 2.945312 48.84375 3.023438 C 48.867188 3.097656 48.890625 3.195312 48.910156 3.316406 C 48.925781 3.417969 48.9375 3.488281 48.949219 3.589844 C 48.964844 3.699219 48.972656 3.792969 48.976562 3.855469 C 49.226562 3.839844 49.480469 3.820312 49.730469 3.804688 C 49.734375 3.675781 49.722656 3.574219 49.707031 3.496094 C 49.695312 3.410156 49.664062 3.242188 49.570312 3.050781 C 49.519531 2.949219 49.464844 2.875 49.421875 2.820312 C 49.484375 2.773438 49.550781 2.714844 49.617188 2.648438 C 49.773438 2.488281 49.871094 2.328125 49.929688 2.199219 C 49.890625 2.121094 49.824219 2.011719 49.734375 1.902344 Z M 49.734375 1.902344 " fill-opacity="1" fill-rule="nonzero"/></g></g></g></g></g></g></svg>